<?xml version="1.0" standalone="no"?>
<!DOCTYPE svg PUBLIC "-//W3C//DTD SVG 20010904//EN"
 "http://www.w3.org/TR/2001/REC-SVG-20010904/DTD/svg10.dtd">
<svg version="1.0" xmlns="http://www.w3.org/2000/svg"
 width="1020.000000pt" height="1020.000000pt" viewBox="0 0 1020.000000 1020.000000"
 preserveAspectRatio="xMidYMid meet">
<metadata>
Created by potrace 1.14, written by Peter Selinger 2001-2017
</metadata>
<g transform="translate(0.000000,1020.000000) scale(0.100000,-0.100000)"
fill="#000000" stroke="none">
<path d="M4630 9723 c-418 -13 -826 -85 -1220 -215 -1024 -336 -1887 -1041
-2436 -1988 -295 -510 -473 -1063 -551 -1710 -24 -205 -24 -688 0 -890 10 -80
21 -167 24 -195 l5 -50 -66 -43 c-206 -135 -316 -308 -344 -543 -20 -161 22
-308 109 -383 38 -32 137 -86 159 -86 5 0 21 -5 35 -10 l27 -10 -47 -53 c-128
-141 -212 -316 -203 -418 8 -76 67 -129 146 -129 51 0 174 33 301 81 58 21
110 39 117 39 6 0 15 -12 19 -28 3 -15 27 -75 51 -134 46 -107 48 -128 16
-128 -32 0 -158 -46 -208 -75 -181 -106 -264 -347 -179 -520 49 -101 125 -152
336 -223 80 -28 165 -60 187 -71 63 -32 72 -58 72 -213 0 -240 28 -338 124
-434 48 -47 74 -64 121 -79 86 -28 220 -24 349 9 55 14 100 25 101 23 0 -1 27
-34 59 -74 163 -203 422 -385 713 -501 341 -135 688 -198 1153 -209 260 -6
442 3 740 38 528 61 1143 209 1720 415 102 36 193 67 203 68 13 1 24 -16 42
-69 31 -86 101 -191 169 -250 60 -53 158 -106 241 -131 89 -27 249 -25 340 3
156 49 295 165 364 304 121 241 79 463 -103 552 -31 15 -56 29 -56 32 0 2 39
25 88 51 593 319 1033 606 1447 943 160 130 513 481 620 616 370 466 543 937
505 1375 -12 138 -20 183 -57 297 l-26 82 37 41 c65 72 131 184 160 271 34 99
45 242 27 330 -14 68 -61 168 -101 217 -34 41 -30 46 40 56 63 9 122 45 142
86 69 137 -86 396 -339 566 l-84 56 8 47 c22 130 -14 316 -97 489 -116 242
-270 375 -500 431 -147 35 -289 37 -491 5 l-37 -6 -17 53 c-30 92 -92 205
-201 365 -548 813 -1339 1411 -2264 1713 -391 127 -741 190 -1180 211 -113 5
-209 9 -215 8 -5 -1 -48 -3 -95 -5z m600 -197 c1248 -139 2338 -810 3038
-1870 147 -224 191 -352 178 -526 -11 -156 -57 -262 -204 -467 -243 -339 -532
-651 -882 -951 -1076 -922 -2701 -1621 -4110 -1766 -513 -53 -1024 -39 -1465
40 -293 52 -631 149 -793 227 -157 75 -294 240 -346 415 -8 29 -25 128 -38
220 -20 147 -22 209 -22 512 0 379 12 522 74 830 156 779 541 1508 1097 2080
234 241 419 396 688 574 196 130 280 179 472 275 466 232 1010 381 1528 421
165 12 622 4 785 -14z m3828 -2312 c146 -29 249 -93 333 -204 88 -117 169
-338 169 -459 -1 -194 -164 -272 -865 -417 -545 -112 -659 -156 -720 -277 -33
-68 -32 -123 5 -285 39 -169 40 -279 5 -417 -49 -196 -137 -330 -255 -390
-127 -65 -284 -68 -653 -14 -313 45 -406 35 -485 -55 -58 -67 -66 -152 -27
-297 47 -173 57 -240 57 -369 0 -94 -5 -145 -21 -205 -94 -361 -391 -551 -753
-481 -97 19 -284 84 -559 194 -297 120 -377 143 -510 149 -210 10 -335 -59
-513 -285 -98 -126 -149 -175 -251 -242 -143 -93 -286 -134 -460 -133 -267 2
-464 97 -701 339 -109 111 -142 139 -198 165 -60 28 -74 31 -144 28 -131 -6
-163 -28 -407 -274 -265 -267 -321 -312 -457 -363 -162 -61 -405 -39 -477 43
-56 64 -50 152 26 390 46 143 61 235 49 299 -10 54 -58 103 -119 121 -47 15
-75 14 -307 -1 -211 -14 -271 -15 -349 -5 -111 14 -188 45 -220 89 -73 103
-41 332 67 475 46 60 155 157 177 157 6 0 25 -28 41 -62 74 -157 212 -296 374
-378 230 -116 741 -245 1150 -289 340 -37 835 -40 1155 -6 1115 117 2316 533
3345 1158 729 443 1302 948 1750 1542 239 317 300 442 315 660 3 44 8 82 11
84 11 11 163 29 252 30 51 1 128 -6 170 -15z m647 -1004 c98 -65 201 -169 243
-247 17 -33 32 -65 32 -71 0 -16 -19 -20 -200 -42 -492 -60 -920 -184 -1410
-410 -85 -39 -160 -74 -166 -76 -7 -3 -13 20 -18 67 -3 40 -16 108 -27 152
-31 122 -38 169 -29 193 20 51 160 94 593 183 512 105 725 173 852 270 22 17
43 31 46 31 4 0 41 -23 84 -50z m85 -636 c80 -72 119 -201 101 -327 -33 -216
-211 -406 -501 -533 -245 -107 -279 -184 -264 -594 8 -225 -3 -281 -67 -342
-70 -67 -145 -81 -594 -108 -348 -22 -551 -90 -709 -239 -64 -61 -194 -215
-350 -414 -109 -140 -238 -270 -309 -312 -93 -54 -181 -77 -319 -82 l-126 -6
-9 59 c-15 108 -9 449 10 554 33 179 5 150 264 275 259 125 569 288 788 412
469 268 1056 651 1264 827 233 196 403 489 457 786 l16 89 97 16 c53 9 101 18
106 19 17 5 104 -43 145 -80z m-910 -389 c0 -74 -235 -268 -604 -497 -123 -76
-170 -87 -220 -47 -34 27 -33 54 4 112 95 150 700 494 808 459 6 -2 12 -14 12
-27z m811 -638 c32 -129 32 -357 1 -502 -130 -607 -604 -1188 -1462 -1792
-223 -157 -592 -383 -865 -530 -272 -147 -680 -343 -713 -343 -10 0 -52 11
-92 25 -155 53 -227 20 -270 -121 l-21 -71 -182 -66 c-395 -142 -668 -224
-1022 -305 -1247 -288 -2290 -211 -2895 213 -84 58 -290 252 -290 272 0 5 37
27 82 49 98 45 232 120 419 232 149 89 211 119 268 128 49 8 84 -21 161 -135
138 -206 312 -304 487 -274 172 30 312 151 418 363 53 106 142 192 221 216
172 52 424 -12 739 -187 60 -33 136 -71 169 -85 128 -52 315 -67 496 -39 207
31 349 106 548 289 45 42 86 76 91 76 5 0 55 -46 113 -103 117 -116 214 -175
334 -203 169 -39 317 25 383 166 22 47 26 68 25 150 0 112 -18 187 -80 338
-24 59 -44 113 -44 120 0 8 18 12 58 12 146 0 328 54 447 132 110 72 202 168
395 413 208 265 299 358 400 408 134 67 264 91 585 107 110 6 235 15 278 21
219 29 352 123 409 289 21 61 23 81 23 335 0 328 1 332 105 380 36 16 106 51
155 76 50 26 93 45 97 43 3 -2 17 -46 29 -97z m-2707 37 c55 -9 103 -18 105
-19 2 -2 -35 -52 -82 -112 -47 -59 -112 -150 -145 -202 l-61 -93 -6 38 c-8 46
-39 176 -60 254 -18 66 -19 122 -3 138 17 17 131 15 252 -4z m-5914 -1002 c0
-32 -28 -133 -40 -145 -4 -5 -90 -37 -191 -72 -101 -34 -238 -83 -304 -108
-166 -62 -225 -79 -225 -64 0 23 58 126 103 185 45 58 148 159 193 189 17 11
74 19 196 28 277 20 268 20 268 -13z m3774 -77 c83 -17 154 -42 432 -153 415
-167 527 -197 719 -196 175 1 300 36 433 121 30 19 55 33 57 31 1 -2 -4 -43
-12 -93 -22 -136 -22 -463 1 -590 25 -137 58 -249 116 -385 26 -63 53 -139 59
-168 47 -224 -68 -310 -278 -206 -60 30 -95 57 -171 135 -181 185 -254 185
-457 -2 -154 -142 -253 -195 -417 -224 -282 -49 -480 13 -682 213 -94 92 -156
170 -360 447 -93 127 -205 274 -249 329 -44 54 -88 109 -98 121 l-17 23 83 40
c154 75 261 166 404 344 115 143 187 200 276 218 63 12 81 11 161 -5z m-3894
-903 c58 -86 211 -246 305 -317 154 -118 355 -207 565 -251 117 -25 384 -25
535 0 578 94 922 163 1340 271 137 35 280 73 318 84 l67 20 42 -57 c23 -31 80
-108 126 -171 77 -105 82 -113 55 -106 -352 91 -585 -2 -747 -298 -71 -129
-107 -177 -170 -222 -69 -49 -137 -62 -208 -41 -82 24 -144 78 -226 199 -100
147 -160 193 -267 204 -101 10 -177 -23 -530 -232 -160 -94 -379 -203 -510
-253 -167 -64 -335 -78 -394 -34 -72 53 -91 121 -97 350 -5 170 -11 202 -55
264 -38 53 -128 102 -290 156 -178 61 -225 85 -256 131 -44 65 -21 193 46 260
44 44 88 66 183 91 114 30 116 29 168 -48z m6277 -1362 c57 -26 83 -69 83
-141 0 -217 -199 -409 -426 -409 -244 0 -436 189 -436 429 0 42 5 88 11 103
l10 26 78 -26 c108 -36 258 -38 354 -4 133 46 256 54 326 22z"/>
</g>
</svg>
